HIERARCHY
ROOT Pelvis
{
	OFFSET 0.000000 0.000000 0.000000
	CHANNELS 6 Xposition Yposition Zposition Xrotation Yrotation Zrotation
	JOINT LeftUpLeg_virtual
	{
		OFFSET 0.000000 0.000000 0.000000
		CHANNELS 3 Xrotation Yrotation Zrotation
		JOINT LeftUpLeg
		{
			OFFSET 18.735201 -5.666702 -4.541200
			CHANNELS 3 Xrotation Yrotation Zrotation
			JOINT LeftLeg
			{
				OFFSET -0.021200 -31.938179 0.493100
				CHANNELS 3 Xrotation Yrotation Zrotation
				JOINT LeftFoot
				{
					OFFSET 0.021200 -31.938179 -4.336299
					CHANNELS 3 Xrotation Yrotation Zrotation
					JOINT LeftToeBase
					{
						OFFSET 0.943001 -26.722000 15.023500
						CHANNELS 3 Xrotation Yrotation Zrotation
						End Site
						{
							OFFSET 0 0 0
						}
					}
				}
			}
		}
	}
	JOINT RightUpLeg_virtual
	{
		OFFSET 0.000000 0.000000 0.000000
		CHANNELS 3 Xrotation Yrotation Zrotation
		JOINT RightUpLeg
		{
			OFFSET -18.735201 -5.666702 -4.541200
			CHANNELS 3 Xrotation Yrotation Zrotation
			JOINT RightLeg
			{
				OFFSET 0.018946 -31.938133 0.493100
				CHANNELS 3 Xrotation Yrotation Zrotation
				JOINT RightFoot
				{
					OFFSET -0.018946 -31.938126 -4.336299
					CHANNELS 3 Xrotation Yrotation Zrotation
					JOINT RightToeBase
					{
						OFFSET -0.943001 -26.722004 15.023500
						CHANNELS 3 Xrotation Yrotation Zrotation
						End Site
						{
							OFFSET 0 0 0
						}
					}
				}
			}
		}
	}
	JOINT Hips_virtual
	{
		OFFSET 0.000000 0.000000 0.000000
		CHANNELS 3 Xrotation Yrotation Zrotation
		JOINT Hips
		{
			OFFSET -0.000000 -0.000000 -0.000000
			CHANNELS 3 Xrotation Yrotation Zrotation
			JOINT Spine
			{
				OFFSET 0.000000 10.199997 -0.299500
				CHANNELS 3 Xrotation Yrotation Zrotation
				JOINT Spine1
				{
					OFFSET 0.000000 11.900002 -1.516600
					CHANNELS 3 Xrotation Yrotation Zrotation
					JOINT Spine2
					{
						OFFSET 0.000000 13.600006 -2.842500
						CHANNELS 3 Xrotation Yrotation Zrotation
						JOINT Neck_virtual
						{
							OFFSET 0.000000 0.000000 0.000000
							CHANNELS 3 Xrotation Yrotation Zrotation
							JOINT Neck
							{
								OFFSET 0.000000 9.624100 -2.890100
								CHANNELS 3 Xrotation Yrotation Zrotation
								JOINT Head
								{
									OFFSET 0.000000 14.068802 -1.351900
									CHANNELS 3 Xrotation Yrotation Zrotation
									End Site
									{
										OFFSET 0 0 0
									}
								}
							}
						}
						JOINT LeftShoulder_virtual
						{
							OFFSET 0.000000 0.000000 0.000000
							CHANNELS 3 Xrotation Yrotation Zrotation
							JOINT LeftShoulder
							{
								OFFSET 15.263000 10.923401 -0.547700
								CHANNELS 3 Xrotation Yrotation Zrotation
								JOINT LeftArm
								{
									OFFSET 25.438599 -2.830597 -13.032500
									CHANNELS 3 Xrotation Yrotation Zrotation
									JOINT LeftForeArm
									{
										OFFSET 29.960503 0.000000 0.000000
										CHANNELS 3 Xrotation Yrotation Zrotation
										JOINT LeftHand
										{
											OFFSET 27.849251 0.000000 0.000000
											CHANNELS 3 Xrotation Yrotation Zrotation
											End Site
											{
												OFFSET 0 0 0
											}
										}
									}
								}
							}
						}
						JOINT RightShoulder_virtual
						{
							OFFSET 0.000000 0.000000 0.000000
							CHANNELS 3 Xrotation Yrotation Zrotation
							JOINT RightShoulder
							{
								OFFSET -15.263000 10.923401 -0.547700
								CHANNELS 3 Xrotation Yrotation Zrotation
								JOINT RightArm
								{
									OFFSET -25.438599 -2.830597 -13.032500
									CHANNELS 3 Xrotation Yrotation Zrotation
									JOINT RightForeArm
									{
										OFFSET -29.960503 0.000000 0.000000
										CHANNELS 3 Xrotation Yrotation Zrotation
										JOINT RightHand
										{
											OFFSET -27.849251 0.000000 0.000000
											CHANNELS 3 Xrotation Yrotation Zrotation
											End Site
											{
												OFFSET 0 0 0
											}
										}
									}
								}
							}
						}
					}
				}
			}
		}
	}
}
MOTION
Frames: 5
Frame Time: 0.03333333
12.873419 83.963066 4.322977 0.000000 0.000000 0.000000 7.272154 -23.100144 4.781991 -38.174385 4.163646 21.253816 53.360102 -2.694068 -4.331462 2.074723 -1.175799 -14.598672 0.000000 0.000000 0.000000 -0.664386 -21.397436 5.530433 -35.575843 -10.727410 -12.016291 41.402602 -5.912302 -1.041562 -11.795831 -8.382097 5.090229 0.000000 0.000000 0.000000 2.879472 -2.814957 -0.343098 8.277834 5.394812 -9.354423 9.558430 -5.773565 -8.552241 5.733717 -2.707342 -5.745245 0.000000 0.000000 0.000000 3.791308 -3.375601 -6.341732 -1.515302 -0.444305 -2.267930 0.000000 0.000000 0.000000 6.070895 -2.168706 -3.235295 0.896220 -6.394887 -12.272911 -28.462785 -1.435888 -33.816410 -8.126130 -48.318479 1.112693 0.000000 0.000000 0.000000 5.882130 -1.202967 -3.758949 0.850029 -8.653315 -4.551641 10.867530 -7.563437 53.239501 -29.036582 82.025798 37.717401 0.000000 0.000000 0.000000 
12.891741 83.688911 3.725290 0.000000 0.000000 0.000000 6.947030 -23.843545 4.853343 -38.692598 3.875927 21.307960 53.696485 -2.376309 -4.256906 2.357646 -0.900870 -14.229825 0.000000 0.000000 0.000000 -0.943472 -20.638472 5.542545 -35.865098 -10.500938 -11.910886 42.091806 -6.139680 -0.920055 -11.322804 -8.622158 5.128974 0.000000 0.000000 0.000000 2.995516 -2.977337 -0.307348 8.382180 4.562721 -9.185269 9.785089 -5.607189 -8.230615 5.800989 -2.624536 -5.550753 0.000000 0.000000 0.000000 3.997009 -3.284188 -6.204387 -1.410075 -0.454605 -2.225460 0.000000 0.000000 0.000000 6.123997 -2.093060 -3.208395 0.962838 -6.393072 -12.457670 -27.908725 -0.134314 -34.332581 -8.188005 -47.220475 0.894617 0.000000 0.000000 0.000000 6.088208 -1.092344 -3.613752 1.112803 -8.207360 -3.900622 11.138194 -6.192482 53.767669 -25.609053 81.689220 34.594741 0.000000 0.000000 0.000000 
12.873354 83.508492 3.218449 0.000000 0.000000 0.000000 6.645665 -24.360519 4.916239 -39.131670 3.645506 21.368131 53.926430 -1.974757 -4.171932 2.578949 -0.539550 -13.780287 0.000000 0.000000 0.000000 -1.164379 -19.776090 5.595236 -36.059751 -10.269382 -11.755823 42.727519 -6.278699 -0.822930 -10.849619 -8.772211 5.185585 0.000000 0.000000 0.000000 3.115900 -3.190496 -0.252353 8.542822 3.709337 -8.912395 9.977224 -5.446856 -7.902634 5.850649 -2.546483 -5.352455 0.000000 0.000000 0.000000 4.204474 -3.177733 -6.053240 -1.300871 -0.454772 -2.174596 0.000000 0.000000 0.000000 6.158793 -2.012828 -3.198959 1.033453 -6.359671 -12.698066 -27.298709 1.193547 -34.887961 -8.231320 -46.077095 0.679284 0.000000 0.000000 0.000000 6.256449 -0.988661 -3.468209 1.353053 -7.759699 -3.244329 10.864647 -5.435069 53.880497 -21.134296 80.692087 30.116879 0.000000 0.000000 0.000000 
12.816946 83.367241 2.749743 0.000000 0.000000 0.000000 6.330573 -24.856648 4.919567 -39.554722 3.438332 21.370564 54.142773 -1.591268 -4.086919 2.775939 -0.194141 -13.342588 0.000000 0.000000 0.000000 -1.359243 -19.002874 5.621812 -36.227986 -10.055848 -11.640805 43.318962 -6.432705 -0.769088 -10.406355 -8.915911 5.160650 0.000000 0.000000 0.000000 3.214344 -3.400256 -0.200188 8.665537 2.971068 -8.687822 10.132710 -5.290550 -7.604197 5.881324 -2.472022 -5.169710 0.000000 0.000000 0.000000 4.368254 -3.057801 -5.897184 -1.210048 -0.445563 -2.119697 0.000000 0.000000 0.000000 6.177805 -1.935938 -3.196614 1.108136 -6.321948 -12.952868 -26.619107 2.417524 -35.491353 -8.231112 -44.987492 0.472347 0.000000 0.000000 0.000000 6.412150 -0.892835 -3.325679 1.597717 -7.306049 -2.602345 10.309108 -5.020739 53.717631 -17.021964 79.298879 25.820564 0.000000 0.000000 0.000000 
12.713869 83.283539 2.330837 0.000000 0.000000 0.000000 6.032214 -25.338200 4.899017 -39.922329 3.246399 21.339869 54.331716 -1.214471 -3.967530 2.958449 0.128714 -12.857076 0.000000 0.000000 0.000000 -1.525578 -18.348012 5.634158 -36.363691 -9.872499 -11.550652 43.829044 -6.614177 -0.734928 -10.012597 -9.080113 5.082204 0.000000 0.000000 0.000000 3.267577 -3.654187 -0.164578 8.643995 2.249919 -8.605515 10.227907 -5.145221 -7.349573 5.881117 -2.404413 -5.010277 0.000000 0.000000 0.000000 4.511848 -2.951529 -5.764897 -1.125373 -0.442877 -2.077443 0.000000 0.000000 0.000000 6.178542 -1.865512 -3.198342 1.183836 -6.293816 -13.208290 -25.775609 3.546462 -36.140464 -8.148986 -43.911604 0.290052 0.000000 0.000000 0.000000 6.536118 -0.811207 -3.181237 1.827883 -6.876595 -1.959716 9.756203 -4.611220 53.641758 -14.230018 77.989600 22.877082 0.000000 0.000000 0.000000 
